<?xml version="1.0" encoding="UTF-8"?>
<svg width="512" height="512" viewBox="0 0 512 512" fill="none" xmlns="http://www.w3.org/2000/svg">
  <!-- 背景圆形 -->
  <circle cx="256" cy="256" r="256" fill="#3B82F6"/>
  
  <!-- 链接图标 -->
  <path d="M339.5 172.5C318.8 151.8 285.2 151.8 264.5 172.5L226.5 210.5C205.8 231.2 205.8 264.8 226.5 285.5C229.8 288.8 233.5 291.5 237.5 293.5C238.2 294 239 294.2 239.8 294.2C241.5 294.2 243.2 293.5 244.2 292.2C246 290 245.8 286.8 243.5 285C240.2 283.2 237.2 281 234.5 278.2C219.2 263 219.2 238 234.5 222.8L272.5 184.8C287.8 169.5 312.8 169.5 328 184.8C343.2 200 343.2 225 328 240.2L309.5 258.8C311.5 267.5 311.8 276.5 310.5 285.2L339.5 256.2C360.2 235.5 360.2 202 339.5 172.5Z" fill="white"/>
  <path d="M285.5 218.5C282.2 215.2 278.5 212.5 274.5 210.5C273.8 210 273 209.8 272.2 209.8C270.5 209.8 268.8 210.5 267.8 211.8C266 214 266.2 217.2 268.5 219C271.8 220.8 274.8 223 277.5 225.8C292.8 241 292.8 266 277.5 281.2L239.5 319.2C224.2 334.5 199.2 334.5 184 319.2C168.8 304 168.8 279 184 263.8L202.5 245.2C200.5 236.5 200.2 227.5 201.5 218.8L172.5 247.8C151.8 268.5 151.8 302 172.5 322.8C193.2 343.5 226.8 343.5 247.5 322.8L285.5 284.8C306.2 264 306.2 230.5 285.5 218.5Z" fill="white"/>
  
  <!-- SURL.CF 文字 -->
  <path d="M180 380C180 376.5 181 373.5 183 371C185 368.5 188 367.2 192 367C196 366.8 199 368 201 370.5C203 373 204 376 204 379.5C204 383 203 386 201 388.5C199 391 196 392.2 192 392C188 391.8 185 390.5 183 388C181 385.5 180 382.8 180 380Z" fill="white"/>
  <path d="M212 380C212 376.5 213 373.5 215 371C217 368.5 220 367.2 224 367C228 366.8 231 368 233 370.5C235 373 236 376 236 379.5C236 383 235 386 233 388.5C231 391 228 392.2 224 392C220 391.8 217 390.5 215 388C213 385.5 212 382.8 212 380Z" fill="white"/>
  <path d="M244 380C244 376.5 245 373.5 247 371C249 368.5 252 367.2 256 367C260 366.8 263 368 265 370.5C267 373 268 376 268 379.5C268 383 267 386 265 388.5C263 391 260 392.2 256 392C252 391.8 249 390.5 247 388C245 385.5 244 382.8 244 380Z" fill="white"/>
  <path d="M276 380C276 376.5 277 373.5 279 371C281 368.5 284 367.2 288 367C292 366.8 295 368 297 370.5C299 373 300 376 300 379.5C300 383 299 386 297 388.5C295 391 292 392.2 288 392C284 391.8 281 390.5 279 388C277 385.5 276 382.8 276 380Z" fill="white"/>
  <path d="M308 380C308 376.5 309 373.5 311 371C313 368.5 316 367.2 320 367C324 366.8 327 368 329 370.5C331 373 332 376 332 379.5C332 383 331 386 329 388.5C327 391 324 392.2 320 392C316 391.8 313 390.5 311 388C309 385.5 308 382.8 308 380Z" fill="white"/>
</svg>
